<svg width="110" height="19" viewBox="0 0 110 19" fill="none" xmlns="http://www.w3.org/2000/svg">
<path d="M107.585 7.69988C107.572 7.31322 107.492 6.97988 107.345 6.69988C107.198 6.40655 106.998 6.16655 106.745 5.97988C106.505 5.79322 106.225 5.65988 105.905 5.57988C105.585 5.48655 105.245 5.43988 104.885 5.43988C104.605 5.43988 104.318 5.47322 104.025 5.53988C103.745 5.59322 103.485 5.69322 103.245 5.83988C103.005 5.97322 102.812 6.15322 102.665 6.37988C102.518 6.60655 102.445 6.88655 102.445 7.21988C102.445 7.49988 102.512 7.73988 102.645 7.93988C102.792 8.12655 102.972 8.28655 103.185 8.41988C103.398 8.55322 103.632 8.66655 103.885 8.75988C104.138 8.83988 104.372 8.90655 104.585 8.95988L106.265 9.33988C106.625 9.39322 106.978 9.49322 107.325 9.63988C107.685 9.77322 107.998 9.95322 108.265 10.1799C108.545 10.4066 108.772 10.6866 108.945 11.0199C109.118 11.3532 109.205 11.7466 109.205 12.1999C109.205 12.7599 109.078 13.2399 108.825 13.6399C108.572 14.0265 108.245 14.3466 107.845 14.5999C107.458 14.8399 107.018 15.0132 106.525 15.1199C106.032 15.2266 105.545 15.2799 105.065 15.2799C103.852 15.2799 102.865 14.9932 102.105 14.4199C101.358 13.8466 100.932 12.9266 100.825 11.6599H102.085C102.138 12.5132 102.445 13.1599 103.005 13.5999C103.578 14.0266 104.285 14.2399 105.125 14.2399C105.432 14.2399 105.745 14.2065 106.065 14.1399C106.398 14.0732 106.705 13.9599 106.985 13.7999C107.265 13.6399 107.492 13.4399 107.665 13.1999C107.852 12.9466 107.945 12.6399 107.945 12.2799C107.945 11.9732 107.878 11.7199 107.745 11.5199C107.625 11.3066 107.458 11.1332 107.245 10.9999C107.032 10.8532 106.785 10.7332 106.505 10.6399C106.238 10.5465 105.965 10.4665 105.685 10.3999L104.065 10.0399C103.652 9.93322 103.272 9.81322 102.925 9.67988C102.578 9.53322 102.272 9.35988 102.005 9.15988C101.752 8.94655 101.552 8.69322 101.405 8.39988C101.258 8.09322 101.185 7.71988 101.185 7.27988C101.185 6.75988 101.298 6.31322 101.525 5.93988C101.765 5.56655 102.072 5.26655 102.445 5.03988C102.818 4.81322 103.232 4.64655 103.685 4.53988C104.152 4.43322 104.612 4.37988 105.065 4.37988C105.585 4.37988 106.065 4.44655 106.505 4.57988C106.958 4.71322 107.352 4.91988 107.685 5.19988C108.032 5.47988 108.305 5.82655 108.505 6.23988C108.705 6.65322 108.818 7.13988 108.845 7.69988H107.585Z" fill="white"/>
<path d="M85.5409 4.68018H86.8809L89.5209 13.5202H89.5609L92.0809 4.68018H93.5009L96.0209 13.5202H96.0609L98.7009 4.68018H100.041L96.7209 15.0002H95.3409L92.8009 6.32018H92.7609L90.2409 15.0002H88.8609L85.5409 4.68018Z" fill="white"/>
<path d="M83.6298 9.11988C83.6164 8.63988 83.5298 8.17988 83.3698 7.73988C83.2231 7.29988 83.0098 6.91322 82.7298 6.57988C82.4498 6.23322 82.1098 5.95988 81.7098 5.75988C81.3098 5.54655 80.8564 5.43988 80.3498 5.43988C79.8298 5.43988 79.3698 5.54655 78.9698 5.75988C78.5698 5.95988 78.2298 6.23322 77.9498 6.57988C77.6698 6.91322 77.4431 7.30655 77.2698 7.75988C77.1098 8.19988 77.0031 8.65322 76.9498 9.11988H83.6298ZM76.9498 10.1799C76.9498 10.6332 77.0098 11.1066 77.1298 11.5999C77.2631 12.0799 77.4698 12.5132 77.7498 12.8999C78.0298 13.2865 78.3831 13.6066 78.8098 13.8599C79.2364 14.1132 79.7498 14.2399 80.3498 14.2399C81.2698 14.2399 81.9898 13.9999 82.5098 13.5199C83.0298 13.0399 83.3898 12.3999 83.5898 11.5999H84.8498C84.5831 12.7732 84.0898 13.6799 83.3698 14.3199C82.6631 14.9599 81.6564 15.2799 80.3498 15.2799C79.5364 15.2799 78.8298 15.1399 78.2298 14.8599C77.6431 14.5666 77.1631 14.1732 76.7898 13.6799C76.4164 13.1732 76.1364 12.5932 75.9498 11.9399C75.7764 11.2732 75.6898 10.5732 75.6898 9.83988C75.6898 9.15988 75.7764 8.49322 75.9498 7.83988C76.1364 7.18655 76.4164 6.60655 76.7898 6.09988C77.1631 5.57988 77.6431 5.16655 78.2298 4.85988C78.8298 4.53988 79.5364 4.37988 80.3498 4.37988C81.1764 4.37988 81.8831 4.54655 82.4698 4.87988C83.0564 5.21322 83.5298 5.65322 83.8898 6.19988C84.2631 6.73322 84.5298 7.35322 84.6898 8.05988C84.8498 8.75322 84.9164 9.45988 84.8898 10.1799H76.9498Z" fill="white"/>
<path d="M62.3477 0.720215H63.8677L72.1877 12.8002H72.2277V0.720215H73.5877V15.0002H72.0677L63.7477 2.92021H63.7077V15.0002H62.3477V0.720215Z" fill="white"/>
<path d="M53.6102 9.11988C53.5969 8.63988 53.5102 8.17988 53.3502 7.73988C53.2036 7.29988 52.9902 6.91322 52.7102 6.57988C52.4302 6.23322 52.0902 5.95988 51.6902 5.75988C51.2902 5.54655 50.8369 5.43988 50.3302 5.43988C49.8102 5.43988 49.3502 5.54655 48.9502 5.75988C48.5502 5.95988 48.2102 6.23322 47.9302 6.57988C47.6502 6.91322 47.4236 7.30655 47.2502 7.75988C47.0902 8.19988 46.9836 8.65322 46.9302 9.11988H53.6102ZM46.9302 10.1799C46.9302 10.6332 46.9902 11.1066 47.1102 11.5999C47.2436 12.0799 47.4502 12.5132 47.7302 12.8999C48.0102 13.2865 48.3636 13.6066 48.7902 13.8599C49.2169 14.1132 49.7302 14.2399 50.3302 14.2399C51.2502 14.2399 51.9702 13.9999 52.4902 13.5199C53.0102 13.0399 53.3702 12.3999 53.5702 11.5999H54.8302C54.5636 12.7732 54.0702 13.6799 53.3502 14.3199C52.6436 14.9599 51.6369 15.2799 50.3302 15.2799C49.5169 15.2799 48.8102 15.1399 48.2102 14.8599C47.6236 14.5666 47.1436 14.1732 46.7702 13.6799C46.3969 13.1732 46.1169 12.5932 45.9302 11.9399C45.7569 11.2732 45.6702 10.5732 45.6702 9.83988C45.6702 9.15988 45.7569 8.49322 45.9302 7.83988C46.1169 7.18655 46.3969 6.60655 46.7702 6.09988C47.1436 5.57988 47.6236 5.16655 48.2102 4.85988C48.8102 4.53988 49.5169 4.37988 50.3302 4.37988C51.1569 4.37988 51.8636 4.54655 52.4502 4.87988C53.0369 5.21322 53.5102 5.65322 53.8702 6.19988C54.2436 6.73322 54.5102 7.35322 54.6702 8.05988C54.8302 8.75322 54.8969 9.45988 54.8702 10.1799H46.9302Z" fill="white"/>
<path d="M43.0991 7.91988C42.9258 7.14655 42.6058 6.53988 42.1391 6.09988C41.6725 5.65988 41.0191 5.43988 40.1791 5.43988C39.5791 5.43988 39.0525 5.56655 38.5991 5.81988C38.1458 6.07322 37.7658 6.40655 37.4591 6.81988C37.1658 7.23322 36.9391 7.70655 36.7791 8.23988C36.6325 8.75988 36.5591 9.29322 36.5591 9.83988C36.5591 10.3866 36.6325 10.9265 36.7791 11.4599C36.9391 11.9799 37.1658 12.4466 37.4591 12.8599C37.7658 13.2732 38.1458 13.6066 38.5991 13.8599C39.0525 14.1132 39.5791 14.2399 40.1791 14.2399C40.5658 14.2399 40.9325 14.1666 41.2791 14.0199C41.6258 13.8732 41.9325 13.6732 42.1991 13.4199C42.4658 13.1532 42.6858 12.8399 42.8591 12.4799C43.0325 12.1199 43.1391 11.7265 43.1791 11.2999H44.4391C44.2658 12.5532 43.8058 13.5332 43.0591 14.2399C42.3125 14.9332 41.3525 15.2799 40.1791 15.2799C39.3925 15.2799 38.6925 15.1399 38.0791 14.8599C37.4791 14.5666 36.9725 14.1732 36.5591 13.6799C36.1458 13.1866 35.8325 12.6132 35.6191 11.9599C35.4058 11.2932 35.2991 10.5866 35.2991 9.83988C35.2991 9.09322 35.4058 8.39322 35.6191 7.73988C35.8325 7.07322 36.1458 6.49322 36.5591 5.99988C36.9725 5.50655 37.4791 5.11322 38.0791 4.81988C38.6925 4.52655 39.3925 4.37988 40.1791 4.37988C41.2858 4.37988 42.2191 4.67322 42.9791 5.25988C43.7525 5.84655 44.2125 6.73322 44.3591 7.91988H43.0991Z" fill="white"/>
<path d="M25.3281 7.83988C25.3681 7.23988 25.4947 6.71988 25.7081 6.27988C25.9214 5.83988 26.2081 5.47988 26.5681 5.19988C26.9414 4.91988 27.3747 4.71322 27.8681 4.57988C28.3614 4.44655 28.9081 4.37988 29.5081 4.37988C29.9614 4.37988 30.4147 4.42655 30.8681 4.51988C31.3214 4.59988 31.7281 4.75988 32.0881 4.99988C32.4481 5.23988 32.7414 5.57988 32.9681 6.01988C33.1947 6.44655 33.3081 7.00655 33.3081 7.69988V13.1799C33.3081 13.6866 33.5547 13.9399 34.0481 13.9399C34.1947 13.9399 34.3281 13.9132 34.4481 13.8599V14.9199C34.3014 14.9466 34.1681 14.9665 34.0481 14.9799C33.9414 14.9932 33.8014 14.9999 33.6281 14.9999C33.3081 14.9999 33.0481 14.9599 32.8481 14.8799C32.6614 14.7865 32.5147 14.6599 32.4081 14.4999C32.3014 14.3399 32.2281 14.1532 32.1881 13.9399C32.1614 13.7132 32.1481 13.4666 32.1481 13.1999H32.1081C31.8814 13.5332 31.6481 13.8332 31.4081 14.0999C31.1814 14.3532 30.9214 14.5666 30.6281 14.7399C30.3481 14.9132 30.0214 15.0465 29.6481 15.1399C29.2881 15.2332 28.8547 15.2799 28.3481 15.2799C27.8681 15.2799 27.4147 15.2199 26.9881 15.0999C26.5747 14.9932 26.2081 14.8199 25.8881 14.5799C25.5814 14.3266 25.3347 14.0132 25.1481 13.6399C24.9747 13.2532 24.8881 12.7999 24.8881 12.2799C24.8881 11.5599 25.0481 10.9999 25.3681 10.5999C25.6881 10.1866 26.1081 9.87322 26.6281 9.65988C27.1614 9.44655 27.7547 9.29988 28.4081 9.21988C29.0747 9.12655 29.7481 9.03988 30.4281 8.95988C30.6947 8.93322 30.9281 8.89988 31.1281 8.85988C31.3281 8.81988 31.4947 8.75322 31.6281 8.65988C31.7614 8.55322 31.8614 8.41322 31.9281 8.23988C32.0081 8.06655 32.0481 7.83988 32.0481 7.55988C32.0481 7.13322 31.9747 6.78655 31.8281 6.51988C31.6947 6.23988 31.5014 6.01988 31.2481 5.85988C31.0081 5.69988 30.7214 5.59322 30.3881 5.53988C30.0681 5.47322 29.7214 5.43988 29.3481 5.43988C28.5481 5.43988 27.8947 5.63322 27.3881 6.01988C26.8814 6.39322 26.6147 6.99988 26.5881 7.83988H25.3281ZM32.0481 9.35988H32.0081C31.9281 9.50655 31.7747 9.61322 31.5481 9.67988C31.3214 9.74655 31.1214 9.79322 30.9481 9.81988C30.4147 9.91322 29.8614 9.99988 29.2881 10.0799C28.7281 10.1466 28.2147 10.2532 27.7481 10.3999C27.2814 10.5465 26.8947 10.7599 26.5881 11.0399C26.2947 11.3065 26.1481 11.6932 26.1481 12.1999C26.1481 12.5199 26.2081 12.8065 26.3281 13.0599C26.4614 13.2999 26.6347 13.5132 26.8481 13.6999C27.0614 13.8732 27.3081 14.0066 27.5881 14.0999C27.8681 14.1932 28.1547 14.2399 28.4481 14.2399C28.9281 14.2399 29.3881 14.1666 29.8281 14.0199C30.2681 13.8732 30.6481 13.6599 30.9681 13.3799C31.3014 13.0999 31.5614 12.7599 31.7481 12.3599C31.9481 11.9599 32.0481 11.5066 32.0481 10.9999V9.35988Z" fill="white"/>
<path d="M13.9637 4.67988H15.1237V6.63988H15.1637C15.457 5.91988 15.9304 5.36655 16.5837 4.97988C17.2504 4.57988 18.0037 4.37988 18.8437 4.37988C19.6304 4.37988 20.3104 4.52655 20.8837 4.81988C21.4704 5.11322 21.957 5.51322 22.3437 6.01988C22.7304 6.51322 23.017 7.09322 23.2037 7.75988C23.3904 8.41322 23.4837 9.10655 23.4837 9.83988C23.4837 10.5732 23.3904 11.2732 23.2037 11.9399C23.017 12.5932 22.7304 13.1732 22.3437 13.6799C21.957 14.1732 21.4704 14.5666 20.8837 14.8599C20.3104 15.1399 19.6304 15.2799 18.8437 15.2799C18.4704 15.2799 18.097 15.2332 17.7237 15.1399C17.3504 15.0465 17.0037 14.9065 16.6837 14.7199C16.3637 14.5332 16.077 14.2999 15.8237 14.0199C15.5837 13.7399 15.397 13.4132 15.2637 13.0399H15.2237V18.7999H13.9637V4.67988ZM22.2237 9.83988C22.2237 9.30655 22.157 8.77988 22.0237 8.25988C21.9037 7.72655 21.7037 7.25322 21.4237 6.83988C21.157 6.42655 20.8104 6.09322 20.3837 5.83988C19.957 5.57322 19.4437 5.43988 18.8437 5.43988C18.1504 5.43988 17.5704 5.55988 17.1037 5.79988C16.637 6.03988 16.2637 6.35988 15.9837 6.75988C15.7037 7.15988 15.5037 7.62655 15.3837 8.15988C15.277 8.69322 15.2237 9.25322 15.2237 9.83988C15.2237 10.3732 15.2837 10.9066 15.4037 11.4399C15.537 11.9599 15.7437 12.4266 16.0237 12.8399C16.317 13.2532 16.6904 13.5932 17.1437 13.8599C17.6104 14.1132 18.177 14.2399 18.8437 14.2399C19.4437 14.2399 19.957 14.1132 20.3837 13.8599C20.8104 13.5932 21.157 13.2532 21.4237 12.8399C21.7037 12.4266 21.9037 11.9599 22.0237 11.4399C22.157 10.9066 22.2237 10.3732 22.2237 9.83988Z" fill="white"/>
<path d="M2.246 10.2999C2.23267 11.0333 2.346 11.6466 2.586 12.1399C2.826 12.6333 3.15267 13.0266 3.566 13.3199C3.99267 13.6133 4.49267 13.8266 5.066 13.9599C5.63933 14.0799 6.25267 14.1399 6.906 14.1399C7.27933 14.1399 7.686 14.0866 8.126 13.9799C8.566 13.8733 8.97267 13.7066 9.346 13.4799C9.73267 13.2399 10.0527 12.9399 10.306 12.5799C10.5593 12.2066 10.686 11.7599 10.686 11.2399C10.686 10.8399 10.5927 10.4933 10.406 10.1999C10.2327 9.90659 9.99933 9.65992 9.706 9.45992C9.426 9.25992 9.11267 9.09992 8.766 8.97992C8.41933 8.84659 8.07933 8.73992 7.746 8.65992L4.566 7.87992C4.15267 7.77326 3.746 7.63992 3.346 7.47992C2.95933 7.31992 2.61933 7.10659 2.326 6.83992C2.03267 6.57326 1.79267 6.24659 1.606 5.85992C1.43267 5.47326 1.346 4.99992 1.346 4.43992C1.346 4.09326 1.41267 3.68659 1.546 3.21992C1.67933 2.75326 1.926 2.31326 2.286 1.89992C2.65933 1.48659 3.166 1.13992 3.806 0.859922C4.446 0.566589 5.266 0.419922 6.266 0.419922C6.97267 0.419922 7.646 0.513255 8.286 0.699922C8.926 0.886589 9.486 1.16659 9.966 1.53992C10.446 1.91326 10.826 2.37992 11.106 2.93992C11.3993 3.48659 11.546 4.12659 11.546 4.85992H10.186C10.1593 4.31326 10.0327 3.83992 9.806 3.43992C9.59267 3.02659 9.306 2.68659 8.946 2.41992C8.59933 2.13992 8.19267 1.93326 7.726 1.79992C7.27267 1.65326 6.79267 1.57992 6.286 1.57992C5.81933 1.57992 5.366 1.63326 4.926 1.73992C4.49933 1.83326 4.11933 1.99326 3.786 2.21992C3.466 2.43326 3.206 2.71992 3.006 3.07992C2.806 3.43992 2.706 3.88659 2.706 4.41992C2.706 4.75326 2.75933 5.04659 2.866 5.29992C2.986 5.53992 3.146 5.74659 3.346 5.91992C3.546 6.09326 3.77267 6.23326 4.026 6.33992C4.29267 6.44659 4.57267 6.53326 4.866 6.59992L8.346 7.45992C8.85267 7.59326 9.326 7.75992 9.766 7.95992C10.2193 8.14659 10.6127 8.38659 10.946 8.67992C11.2927 8.95992 11.5593 9.30659 11.746 9.71992C11.946 10.1333 12.046 10.6333 12.046 11.2199C12.046 11.3799 12.026 11.5933 11.986 11.8599C11.9593 12.1266 11.8793 12.4133 11.746 12.7199C11.626 13.0133 11.446 13.3133 11.206 13.6199C10.9793 13.9266 10.6593 14.2066 10.246 14.4599C9.846 14.6999 9.346 14.8933 8.746 15.0399C8.146 15.1999 7.426 15.2799 6.586 15.2799C5.746 15.2799 4.966 15.1866 4.246 14.9999C3.526 14.7999 2.91267 14.4999 2.406 14.0999C1.89933 13.6999 1.506 13.1866 1.226 12.5599C0.959333 11.9333 0.846 11.1799 0.886 10.2999H2.246Z" fill="white"/>
</svg>
